<?xml version="1.0" encoding="UTF-8" standalone="no"?>
<!-- Created with Inkscape (http://www.inkscape.org/) -->

<svg
   width="162.6721mm"
   height="133.4615mm"
   viewBox="0 0 162.6721 133.46149"
   version="1.1"
   id="svg1"
   inkscape:version="1.3 (0e150ed, 2023-07-21)"
   sodipodi:docname="Müllcontainer-Restmüll.svg"
   xml:space="preserve"
   xmlns:inkscape="http://www.inkscape.org/namespaces/inkscape"
   xmlns:sodipodi="http://sodipodi.sourceforge.net/DTD/sodipodi-0.dtd"
   xmlns="http://www.w3.org/2000/svg"
   xmlns:svg="http://www.w3.org/2000/svg"><sodipodi:namedview
     id="namedview1"
     pagecolor="#ffffff"
     bordercolor="#000000"
     borderopacity="0"
     inkscape:showpageshadow="2"
     inkscape:pageopacity="0.0"
     inkscape:pagecheckerboard="true"
     inkscape:deskcolor="#d1d1d1"
     inkscape:document-units="mm"
     showgrid="false"
     inkscape:zoom="1"
     inkscape:cx="449.99999"
     inkscape:cy="173.5"
     inkscape:window-width="1850"
     inkscape:window-height="1131"
     inkscape:window-x="0"
     inkscape:window-y="0"
     inkscape:window-maximized="1"
     inkscape:current-layer="g36"
     showborder="true"
     shape-rendering="auto"
     inkscape:clip-to-page="false"
     showguides="false"><inkscape:grid
       id="grid1"
       units="px"
       originx="11.04416"
       originy="-518.88561"
       spacingx="0.26458333"
       spacingy="0.26458334"
       empcolor="#0099e5"
       empopacity="0.30196078"
       color="#0099e5"
       opacity="0.14901961"
       empspacing="5"
       dotted="false"
       gridanglex="30"
       gridanglez="30"
       visible="false" /></sodipodi:namedview><defs
     id="defs1" /><g
     inkscape:groupmode="layer"
     id="layer2"
     inkscape:label="Müll"
     style="display:inline"
     transform="translate(23.1721,-0.03848506)"><g
       id="g21"
       style="display:inline;fill:none;fill-opacity:1;stroke-width:0.5;stroke-dasharray:none"
       transform="translate(-246.92217,21.106206)"
       inkscape:label="Grüner Punkt"><path
         style="display:inline;fill:#ffffff;fill-opacity:1;stroke:#000000;stroke-width:0.5;stroke-linecap:round;stroke-linejoin:round;stroke-dasharray:none;stroke-opacity:1"
         d="m 242,94 11,-3.666667 V 85.929376 79.333 l -7,0.667056 -11,3.666944 3e-5,7.999667 z"
         id="path3"
         sodipodi:nodetypes="cccccccc" /><path
         style="fill:none;fill-opacity:1;stroke:#000000;stroke-width:0.5;stroke-linecap:round;stroke-linejoin:round;stroke-dasharray:none;stroke-opacity:1"
         d="M 253,82.333 252.23425,82.588272 242,86 235,83.667 242,83 253.00057,79.345672"
         id="path20"
         sodipodi:nodetypes="cccccc" /><path
         style="fill:none;fill-opacity:1;stroke:#21563f;stroke-width:0.5;stroke-linecap:round;stroke-linejoin:round;stroke-dasharray:none;stroke-opacity:1"
         d="M 242,83 V 90.053026 94"
         id="path21"
         sodipodi:nodetypes="ccc"
         inkscape:label="path21" /><g
         clip-path="url(#clipPath20)"
         id="g2"
         transform="matrix(0.00442032,-0.00118442,0,-0.00442032,244.93504,91.967351)"
         style="stroke-width:113.114;stroke-dasharray:none">&#10;    <path
   d="m 682.79,1365.55 c 377.27,0 683.36,-306.05 683.36,-682.75 C 1366.15,305.47 1060.06,0 682.79,0 305.53,0 0,305.47 0,682.8 c 0,376.7 305.53,682.75 682.79,682.75"
   style="fill:#e6e6e6;fill-rule:nonzero;stroke-width:113.114;stroke-dasharray:none;fill-opacity:1"
   id="path1-3"
   inkscape:label="path1-3"
   sodipodi:nodetypes="csssc" />&#10;    <path
   d="m 8.68,682.8 c 0,371.91 301.64,674.06 674.11,674.06 15.91,0 31.63,-0.76 47.27,-1.84 C 1407.92,1246.88 1325,278.42 680.6,224.4 L 679.47,32.48 C 572.15,86.18 395.24,216.66 333.84,396.9 383.62,562.19 548.98,712.07 675.57,769.59 V 581.65 c 103.99,34.22 318.51,249.31 330.13,360.45 -26.51,118.89 -237.75,325.66 -326.23,348.33 0,0 2.76,-168.65 0,-175.82 -227.46109,0 -398.91138,-126.71579 -469.35094,-284.89586 l 0,0 C 168.7434,736.80038 135.67812,646.34419 136.47,569.41 c 0,-205.72 82.04,-396.66 256,-495.22 C 165.44,182.62 8.68,414.28 8.68,682.8 Z m 674.11,682.74 C 305.53,1365.54 0,1059.51 0,682.8 0,305.47 305.53,0 682.79,0 c 377.27,0 683.36,305.47 683.36,682.8 0,376.71 -306.09,682.74 -683.36,682.74"
   style="fill:#565656;fill-rule:nonzero;stroke-width:113.114;stroke-dasharray:none;fill-opacity:1"
   id="path2-6"
   sodipodi:nodetypes="sscccccccccssccscsssc" />&#10;  </g></g><g
       id="g36"
       style="display:inline;fill:none;fill-opacity:1;stroke-width:0.5;stroke-dasharray:none"
       transform="translate(-256.86376,25.83111)"
       inkscape:label="Restmüll"><path
         style="display:inline;fill:#ff6800;fill-opacity:1;stroke:#000000;stroke-width:0.5;stroke-linecap:round;stroke-linejoin:round;stroke-dasharray:none;stroke-opacity:1"
         d="m 240.94166,92.941666 11,-3.666667 V 78.274666 l -7,0.667056 -11,3.666944 3e-5,7.999667 z"
         id="path34"
         sodipodi:nodetypes="ccccccc" /><path
         style="fill:none;fill-opacity:1;stroke:#000000;stroke-width:0.5;stroke-linecap:round;stroke-linejoin:round;stroke-dasharray:none;stroke-opacity:1"
         d="m 251.94166,81.274666 -11,3.667 -7,-2.333 7,-0.667 11.00057,-3.654328"
         id="path35"
         sodipodi:nodetypes="ccccc" /><path
         style="fill:none;fill-opacity:1;stroke:#000000;stroke-width:0.5;stroke-linecap:round;stroke-linejoin:round;stroke-dasharray:none;stroke-opacity:1"
         d="m 240.94166,81.941666 v 11"
         id="path36"
         sodipodi:nodetypes="cc" /></g></g><g
     inkscape:label="Haus"
     inkscape:groupmode="layer"
     id="layer1"
     transform="translate(2.9221,-137.28849)"
     style="display:inline"><g
       id="g32"
       style="display:inline"><path
         style="fill:#ffffff;fill-opacity:1;stroke:none;stroke-width:1.5;stroke-linecap:round;stroke-linejoin:round;stroke-dasharray:none"
         d="m 33,171 99,-33 27,9 -99.000001,33 z"
         id="path27" /><path
         style="fill:#ffffff;fill-opacity:1;stroke:none;stroke-width:1.5;stroke-linecap:round;stroke-linejoin:round;stroke-dasharray:none"
         d="m 33,193.49961 26.999999,9 99.000001,-33 V 147 L 59.999999,180 33,171 Z"
         id="path26" /><path
         style="fill:#ff6800;fill-opacity:1;stroke:none;stroke-width:1.5;stroke-linecap:round;stroke-linejoin:round;stroke-dasharray:none"
         d="m 21,257 v -9 l 12,-4 v -28.00039 l 13.499999,4.5 v 45.0004 z"
         id="path28" /><path
         style="fill:#ffffff;fill-opacity:1;stroke:none;stroke-width:1.5;stroke-linecap:round;stroke-linejoin:round;stroke-dasharray:none"
         d="m 33,193.49961 26.999999,9 99.000001,-33 v 22.5 l -99.000001,33 -26.999999,-9 z"
         id="path25" /><path
         style="fill:#ffffff;fill-opacity:1;stroke:none;stroke-width:1.5;stroke-linecap:round;stroke-linejoin:round;stroke-dasharray:none"
         d="M 46.5,243 59.999999,247.5 159,214.49961 v -22.5 l -99.000001,33 -13.499999,-4.5 z"
         id="path24" /><path
         style="fill:#ffffff;fill-opacity:1;stroke:none;stroke-width:1.5;stroke-linecap:round;stroke-linejoin:round;stroke-dasharray:none"
         d="M 46.5,243 59.999999,247.5 159,214.49961 V 237 l -99.000001,33 -13.5,-4.49999 z"
         id="path23" /><path
         style="fill:#000000;fill-opacity:0;stroke:#000000;stroke-width:1.5;stroke-linecap:round;stroke-linejoin:round;stroke-dasharray:none"
         d="m 33,171 99,-33 27,9 v 90 l -15,5 -6,2 -27,9 -9,3 -9,3 c 0,0 -32.747154,10.60849 -33,11 L 21,257 v -9 l 12,4 z"
         id="path1"
         sodipodi:nodetypes="cccccccccccccc" /><path
         style="fill:#000000;fill-opacity:0;stroke:#000000;stroke-width:1.5;stroke-linecap:round;stroke-linejoin:round;stroke-dasharray:none"
         d="m 33,171 27,9 99,-33"
         id="path2"
         sodipodi:nodetypes="ccc" /><path
         style="fill:#000000;fill-opacity:0;stroke:#000000;stroke-width:1.5;stroke-linecap:round;stroke-linejoin:round;stroke-dasharray:none"
         d="m 33,193.49961 27,9 99,-33"
         id="path4"
         sodipodi:nodetypes="ccc" /><path
         style="fill:#000000;fill-opacity:0;stroke:#000000;stroke-width:1.5;stroke-linecap:round;stroke-linejoin:round;stroke-dasharray:none"
         d="m 33,215.99961 13.5,4.5 13.5,4.5 99,-33"
         id="path5"
         sodipodi:nodetypes="cccc" /><path
         style="fill:#000000;fill-opacity:0;stroke:#000000;stroke-width:1.5;stroke-linecap:round;stroke-linejoin:round;stroke-dasharray:none"
         d="m 46.5,243 13.5,4.5 99,-33.00039"
         id="path6"
         sodipodi:nodetypes="ccc" /><path
         style="fill:#000000;fill-opacity:0;stroke:#000000;stroke-width:1.5;stroke-linecap:round;stroke-linejoin:round;stroke-dasharray:none"
         d="m 21,248 12,-4"
         id="path7"
         sodipodi:nodetypes="cc" /><path
         style="fill:#000000;fill-opacity:0;stroke:#000000;stroke-width:1.5;stroke-linecap:round;stroke-linejoin:round;stroke-dasharray:none"
         d="M 46.499999,220.49961 V 243 265.50001"
         id="path8" /><path
         style="fill:#000000;fill-opacity:0;stroke:#000000;stroke-width:1.5;stroke-linecap:round;stroke-linejoin:round;stroke-dasharray:none"
         d="m 33,252 13.499999,4.5"
         id="path9"
         sodipodi:nodetypes="cc" /><path
         style="fill:#000000;fill-opacity:0;stroke:#000000;stroke-width:1.5;stroke-linecap:round;stroke-linejoin:round;stroke-dasharray:none"
         d="M 92.999998,259 93,244"
         id="path10"
         sodipodi:nodetypes="cc" /><path
         style="fill:#000000;fill-opacity:0;stroke:#000000;stroke-width:1.5;stroke-linecap:round;stroke-linejoin:round;stroke-dasharray:none"
         d="M 111,253 V 238"
         id="path11"
         sodipodi:nodetypes="cc" /><path
         style="fill:#000000;fill-opacity:0;stroke:#000000;stroke-width:1.5;stroke-linecap:round;stroke-linejoin:round;stroke-dasharray:none"
         d="M 102,256 V 241"
         id="path12"
         sodipodi:nodetypes="cc" /><path
         style="fill:#000000;fill-opacity:0;stroke:#000000;stroke-width:1.5;stroke-linecap:round;stroke-linejoin:round;stroke-dasharray:none"
         d="m 92.999613,243.99961 17.999997,-6"
         id="path13" /><path
         style="fill:#000000;fill-opacity:0;stroke:#000000;stroke-width:1.5;stroke-linecap:round;stroke-linejoin:round;stroke-dasharray:none"
         d="M 144,242 V 227"
         id="path14"
         sodipodi:nodetypes="cc" /><path
         style="fill:#000000;fill-opacity:0;stroke:#000000;stroke-width:1.5;stroke-linecap:round;stroke-linejoin:round;stroke-dasharray:none"
         d="M 138,244 V 229"
         id="path15"
         sodipodi:nodetypes="cc" /><path
         style="fill:#000000;fill-opacity:0;stroke:#000000;stroke-width:1.5;stroke-linecap:round;stroke-linejoin:round;stroke-dasharray:none"
         d="m 138,229 6,-2"
         id="path16" /><path
         style="fill:#000000;fill-opacity:0;stroke:#000000;stroke-width:1.5;stroke-linecap:round;stroke-linejoin:round;stroke-dasharray:none"
         d="M 92.999998,231 150,212"
         id="path17"
         sodipodi:nodetypes="cc" /><path
         style="fill:#000000;fill-opacity:0;stroke:#000000;stroke-width:1.5;stroke-linecap:round;stroke-linejoin:round;stroke-dasharray:none"
         d="M 92.999998,208.5 150,189.5"
         id="path18"
         sodipodi:nodetypes="cc" /><path
         style="fill:#000000;fill-opacity:0;stroke:#000000;stroke-width:1.5;stroke-linecap:round;stroke-linejoin:round;stroke-dasharray:none"
         d="M 92.999998,186 150,167"
         id="path19"
         sodipodi:nodetypes="cc" /><path
         d="m 70.803918,186.81678 c 0,-1.93322 -1.326444,-3.175 -3.428998,-3.175 -2.074331,0 -3.287886,1.22766 -3.287886,3.34433 0,0.0847 0,0.19755 0.01411,0.35278 h 1.890888 v -0.32456 c 0,-1.11478 0.52211,-1.76389 1.425221,-1.76389 0.874888,0 1.41111,0.60678 1.41111,1.60867 0,1.10067 -0.338667,1.55222 -2.554109,3.10444 -1.679221,1.17122 -2.215443,2.04611 -2.314221,3.89467 h 6.801551 v -1.76389 h -4.233331 c 0.846666,-1.79211 4.275664,-2.286 4.275665,-5.27755 z"
         id="text19"
         style="font-weight:600;font-size:14.1111px;font-family:FreeSans;-inkscape-font-specification:'FreeSans Semi-Bold';letter-spacing:2.52942px;stroke-width:1.5;stroke-linecap:round;stroke-linejoin:round"
         aria-label="2" /><path
         d="m 67.593641,209.35205 v 6.90033 h 1.975554 v -10.00477 h -1.312332 c -0.310445,1.18533 -1.340555,1.79211 -3.062109,1.79211 v 1.31233 z"
         id="text20"
         style="font-weight:600;font-size:14.1111px;font-family:FreeSans;-inkscape-font-specification:'FreeSans Semi-Bold';letter-spacing:2.52942px;fill:#000000;stroke-width:1.5;stroke-linecap:round;stroke-linejoin:round"
         aria-label="1" /><path
         d="m 71.248417,229.21539 h -7.732883 v 1.76389 h 5.263441 l -5.263441,6.75921 v 1.76389 h 7.732883 v -1.76389 h -5.249329 l 5.249329,-6.75921 z"
         id="text21"
         style="font-weight:600;font-size:14.1111px;font-family:FreeSans;-inkscape-font-specification:'FreeSans Semi-Bold';letter-spacing:2.52942px;stroke-width:1.5;stroke-linecap:round;stroke-linejoin:round"
         aria-label="Z" /><path
         d="m 65.653367,257.46261 h 4.924774 v -1.76389 h -4.924774 v -2.32833 h 5.319885 v -1.76389 h -7.43655 v 10.28699 h 7.69055 v -1.76388 h -5.573885 z"
         id="text22"
         style="font-weight:600;font-size:14.1111px;font-family:FreeSans;-inkscape-font-specification:'FreeSans Semi-Bold';letter-spacing:2.52942px;stroke-width:1.5;stroke-linecap:round;stroke-linejoin:round"
         aria-label="E" /><path
         d="m 26.444774,231.85348 v 4.67078 h 2.116665 v -10.28699 h -2.130776 v 3.85233 h -4.063997 v -3.85233 h -2.116665 v 10.28699 h 2.116665 v -4.67078 z"
         id="text23"
         style="font-weight:600;font-size:14.1111px;font-family:FreeSans;-inkscape-font-specification:'FreeSans Semi-Bold';letter-spacing:2.52942px;stroke-width:1.5;stroke-linecap:round;stroke-linejoin:round"
         aria-label="H" /></g></g><g
     inkscape:groupmode="layer"
     id="layer4"
     inkscape:label="Layer 2"
     style="display:inline"
     transform="translate(23.1721,-0.03848506)" /><g
     inkscape:groupmode="layer"
     id="layer5"
     inkscape:label="Layer 3"
     style="display:inline"
     transform="translate(23.1721,-0.03848506)" /></svg>
