<?xml version="1.0" encoding="UTF-8" standalone="no"?>
<!-- Created with Inkscape (http://www.inkscape.org/) -->

<svg
   width="139.5mm"
   height="133.49998mm"
   viewBox="0 0 139.5 133.49998"
   version="1.1"
   id="svg1"
   inkscape:version="1.3 (0e150ed, 2023-07-21)"
   sodipodi:docname="Etagen-2.svg"
   xmlns:inkscape="http://www.inkscape.org/namespaces/inkscape"
   xmlns:sodipodi="http://sodipodi.sourceforge.net/DTD/sodipodi-0.dtd"
   xmlns="http://www.w3.org/2000/svg"
   xmlns:svg="http://www.w3.org/2000/svg">
  <sodipodi:namedview
     id="namedview1"
     pagecolor="#ffffff"
     bordercolor="#000000"
     borderopacity="0"
     inkscape:showpageshadow="2"
     inkscape:pageopacity="0.0"
     inkscape:pagecheckerboard="false"
     inkscape:deskcolor="#d1d1d1"
     inkscape:document-units="mm"
     showgrid="false"
     inkscape:zoom="1.4142136"
     inkscape:cx="235.113"
     inkscape:cy="275.41809"
     inkscape:window-width="1850"
     inkscape:window-height="1131"
     inkscape:window-x="0"
     inkscape:window-y="0"
     inkscape:window-maximized="1"
     inkscape:current-layer="layer1"
     showborder="true"
     shape-rendering="auto"
     inkscape:clip-to-page="false">
    <inkscape:grid
       id="grid1"
       units="px"
       originx="-76.535433"
       originy="-518.74017"
       spacingx="0.26458333"
       spacingy="0.26458334"
       empcolor="#0099e5"
       empopacity="0.30196078"
       color="#0099e5"
       opacity="0.14901961"
       empspacing="5"
       dotted="false"
       gridanglex="30"
       gridanglez="30"
       visible="false" />
  </sodipodi:namedview>
  <defs
     id="defs1" />
  <g
     inkscape:label="Layer 1"
     inkscape:groupmode="layer"
     id="layer1"
     transform="translate(-20.25,-137.25)">
    <path
       style="fill:#ffffff;fill-opacity:1;stroke:none;stroke-width:1.5;stroke-linecap:round;stroke-linejoin:round;stroke-dasharray:none"
       d="m 33,171 99,-33 27,9 -99.000001,33 z"
       id="path27" />
    <path
       style="fill:#ff6800;fill-opacity:1;stroke:none;stroke-width:1.5;stroke-linecap:round;stroke-linejoin:round;stroke-dasharray:none"
       d="m 33,193.49961 26.999999,9 99.000001,-33 V 147 L 59.999999,180 33,171 Z"
       id="path26" />
    <path
       style="fill:#ffffff;fill-opacity:1;stroke:none;stroke-width:1.5;stroke-linecap:round;stroke-linejoin:round;stroke-dasharray:none"
       d="m 21,257 v -9 l 12,-4 v -28.00039 l 13.499999,4.5 v 45.0004 z"
       id="path28" />
    <path
       style="fill:#ffffff;fill-opacity:1;stroke:none;stroke-width:1.5;stroke-linecap:round;stroke-linejoin:round;stroke-dasharray:none"
       d="m 33,193.49961 26.999999,9 99.000001,-33 v 22.5 l -99.000001,33 -26.999999,-9 z"
       id="path25" />
    <path
       style="fill:#ffffff;fill-opacity:1;stroke:none;stroke-width:1.5;stroke-linecap:round;stroke-linejoin:round;stroke-dasharray:none"
       d="M 46.5,243 59.999999,247.5 159,214.49961 v -22.5 l -99.000001,33 -13.499999,-4.5 z"
       id="path24" />
    <path
       style="fill:#ffffff;fill-opacity:1;stroke:none;stroke-width:1.5;stroke-linecap:round;stroke-linejoin:round;stroke-dasharray:none"
       d="M 46.5,243 59.999999,247.5 159,214.49961 V 237 l -99.000001,33 -13.5,-4.49999 z"
       id="path23" />
    <path
       style="fill:#000000;fill-opacity:0;stroke:#000000;stroke-width:1.5;stroke-linecap:round;stroke-linejoin:round;stroke-dasharray:none"
       d="m 33,171 99,-33 27,9 v 90 l -15,5 -6,2 -27,9 -9,3 -9,3 c 0,0 -32.747154,10.60849 -33,11 L 21,257 v -9 l 12,4 z"
       id="path1"
       sodipodi:nodetypes="cccccccccccccc" />
    <path
       style="fill:#000000;fill-opacity:0;stroke:#000000;stroke-width:1.5;stroke-linecap:round;stroke-linejoin:round;stroke-dasharray:none"
       d="m 33,171 27,9 99,-33"
       id="path2"
       sodipodi:nodetypes="ccc" />
    <path
       style="fill:#000000;fill-opacity:0;stroke:#000000;stroke-width:1.5;stroke-linecap:round;stroke-linejoin:round;stroke-dasharray:none"
       d="m 33,193.49961 27,9 99,-33"
       id="path4"
       sodipodi:nodetypes="ccc" />
    <path
       style="fill:#000000;fill-opacity:0;stroke:#000000;stroke-width:1.5;stroke-linecap:round;stroke-linejoin:round;stroke-dasharray:none"
       d="m 33,215.99961 13.5,4.5 13.5,4.5 99,-33"
       id="path5"
       sodipodi:nodetypes="cccc" />
    <path
       style="fill:#000000;fill-opacity:0;stroke:#000000;stroke-width:1.5;stroke-linecap:round;stroke-linejoin:round;stroke-dasharray:none"
       d="m 46.5,243 13.5,4.5 99,-33.00039"
       id="path6"
       sodipodi:nodetypes="ccc" />
    <path
       style="fill:#000000;fill-opacity:0;stroke:#000000;stroke-width:1.5;stroke-linecap:round;stroke-linejoin:round;stroke-dasharray:none"
       d="m 21,248 12,-4"
       id="path7"
       sodipodi:nodetypes="cc" />
    <path
       style="fill:#000000;fill-opacity:0;stroke:#000000;stroke-width:1.5;stroke-linecap:round;stroke-linejoin:round;stroke-dasharray:none"
       d="M 46.499999,220.49961 V 243 265.50001"
       id="path8" />
    <path
       style="fill:#000000;fill-opacity:0;stroke:#000000;stroke-width:1.5;stroke-linecap:round;stroke-linejoin:round;stroke-dasharray:none"
       d="m 33,252 13.499999,4.5"
       id="path9"
       sodipodi:nodetypes="cc" />
    <path
       style="fill:#000000;fill-opacity:0;stroke:#000000;stroke-width:1.5;stroke-linecap:round;stroke-linejoin:round;stroke-dasharray:none"
       d="M 92.999998,259 93,244"
       id="path10"
       sodipodi:nodetypes="cc" />
    <path
       style="fill:#000000;fill-opacity:0;stroke:#000000;stroke-width:1.5;stroke-linecap:round;stroke-linejoin:round;stroke-dasharray:none"
       d="M 111,253 V 238"
       id="path11"
       sodipodi:nodetypes="cc" />
    <path
       style="fill:#000000;fill-opacity:0;stroke:#000000;stroke-width:1.5;stroke-linecap:round;stroke-linejoin:round;stroke-dasharray:none"
       d="M 102,256 V 241"
       id="path12"
       sodipodi:nodetypes="cc" />
    <path
       style="fill:#000000;fill-opacity:0;stroke:#000000;stroke-width:1.5;stroke-linecap:round;stroke-linejoin:round;stroke-dasharray:none"
       d="m 92.999613,243.99961 17.999997,-6"
       id="path13" />
    <path
       style="fill:#000000;fill-opacity:0;stroke:#000000;stroke-width:1.5;stroke-linecap:round;stroke-linejoin:round;stroke-dasharray:none"
       d="M 144,242 V 227"
       id="path14"
       sodipodi:nodetypes="cc" />
    <path
       style="fill:#000000;fill-opacity:0;stroke:#000000;stroke-width:1.5;stroke-linecap:round;stroke-linejoin:round;stroke-dasharray:none"
       d="M 138,244 V 229"
       id="path15"
       sodipodi:nodetypes="cc" />
    <path
       style="fill:#000000;fill-opacity:0;stroke:#000000;stroke-width:1.5;stroke-linecap:round;stroke-linejoin:round;stroke-dasharray:none"
       d="m 138,229 6,-2"
       id="path16" />
    <path
       style="fill:#000000;fill-opacity:0;stroke:#000000;stroke-width:1.5;stroke-linecap:round;stroke-linejoin:round;stroke-dasharray:none"
       d="M 92.999998,231 150,212"
       id="path17"
       sodipodi:nodetypes="cc" />
    <path
       style="fill:#000000;fill-opacity:0;stroke:#000000;stroke-width:1.5;stroke-linecap:round;stroke-linejoin:round;stroke-dasharray:none"
       d="M 92.999998,208.5 150,189.5"
       id="path18"
       sodipodi:nodetypes="cc" />
    <path
       style="fill:#000000;fill-opacity:0;stroke:#000000;stroke-width:1.5;stroke-linecap:round;stroke-linejoin:round;stroke-dasharray:none"
       d="M 92.999998,186 150,167"
       id="path19"
       sodipodi:nodetypes="cc" />
    <path
       d="m 70.803918,186.81678 c 0,-1.93322 -1.326444,-3.175 -3.428998,-3.175 -2.074331,0 -3.287886,1.22766 -3.287886,3.34433 0,0.0847 0,0.19755 0.01411,0.35278 h 1.890888 v -0.32456 c 0,-1.11478 0.52211,-1.76389 1.425221,-1.76389 0.874888,0 1.41111,0.60678 1.41111,1.60867 0,1.10067 -0.338667,1.55222 -2.554109,3.10444 -1.679221,1.17122 -2.215443,2.04611 -2.314221,3.89467 h 6.801551 v -1.76389 h -4.233331 c 0.846666,-1.79211 4.275664,-2.286 4.275664,-5.27755 z"
       id="text19"
       style="font-weight:600;font-size:14.1111px;font-family:FreeSans;-inkscape-font-specification:'FreeSans Semi-Bold';letter-spacing:2.52942px;stroke-width:1.5;stroke-linecap:round;stroke-linejoin:round;fill:#ffffff"
       aria-label="2" />
    <path
       d="m 67.593641,209.35205 v 6.90033 h 1.975554 v -10.00477 h -1.312332 c -0.310445,1.18533 -1.340555,1.79211 -3.062109,1.79211 v 1.31233 z"
       id="text20"
       style="font-weight:600;font-size:14.1111px;font-family:FreeSans;-inkscape-font-specification:'FreeSans Semi-Bold';letter-spacing:2.52942px;stroke-width:1.5;stroke-linecap:round;stroke-linejoin:round;fill:#000000"
       aria-label="1" />
    <path
       d="m 71.248417,229.21539 h -7.732883 v 1.76389 h 5.263441 l -5.263441,6.75921 v 1.76389 h 7.732883 v -1.76389 h -5.249329 l 5.249329,-6.75921 z"
       id="text21"
       style="font-weight:600;font-size:14.1111px;font-family:FreeSans;-inkscape-font-specification:'FreeSans Semi-Bold';letter-spacing:2.52942px;stroke-width:1.5;stroke-linecap:round;stroke-linejoin:round"
       aria-label="Z" />
    <path
       d="m 65.653367,257.46261 h 4.924774 v -1.76389 h -4.924774 v -2.32833 h 5.319885 v -1.76389 h -7.43655 v 10.28699 h 7.69055 v -1.76388 h -5.573885 z"
       id="text22"
       style="font-weight:600;font-size:14.1111px;font-family:FreeSans;-inkscape-font-specification:'FreeSans Semi-Bold';letter-spacing:2.52942px;stroke-width:1.5;stroke-linecap:round;stroke-linejoin:round"
       aria-label="E" />
    <path
       d="m 26.444774,236.61601 v 4.67078 h 2.116665 V 230.9998 h -2.130776 v 3.85233 h -4.063997 v -3.85233 h -2.116665 v 10.28699 h 2.116665 v -4.67078 z"
       id="text23"
       style="font-weight:600;font-size:14.1111px;font-family:FreeSans;-inkscape-font-specification:'FreeSans Semi-Bold';letter-spacing:2.52942px;stroke-width:1.5;stroke-linecap:round;stroke-linejoin:round"
       aria-label="H" />
  </g>
</svg>
